# xmcd
#
# Track frame offsets: 
#        150
#        47475
#        107250
#        152400
#        181125
#        234075
#
# Disc length: 4044 seconds
#
# Revision: 0
# Processed by: cddbd v1.5.2PL0 Copyright (c) Steve Scherf et al.
# Submitted via: ExactAudioCopy v0.95a5
#
DISCID=300fca06
DTITLE=Anton Pavlovich Chekhov - Isbranie Rasskasi
DYEAR=2007
DGENRE=Hörbuch (Russisch)
TTITLE0=Loshadnaja Familija
TTITLE1=Banka
TTITLE2=Xameleon
TTITLE3=Tolsti i Tonkii
TTITLE4=Xirurgija
TTITLE5=Pismo K Utchenomu Sosedu
EXTD=
EXTT0=
EXTT1=
EXTT2=
EXTT3=
EXTT4=
EXTT5=
PLAYORDER=
